<?xml version='1.0' encoding='utf-8'?>
<!DOCTYPE svg PUBLIC '-//W3C//DTD SVG 1.1//EN' 'http://www.w3.org/Graphics/SVG/1.1/DTD/svg11.dtd'>
<svg width="64" version="1.1" xmlns="http://www.w3.org/2000/svg" height="64" viewBox="0 0 64 64" xmlns:xlink="http://www.w3.org/1999/xlink" enable-background="new 0 0 64 64">
  <g>
    <g fill="#1D1D1B">
      <path d="m33.17,20.01c-0.201-0.202-0.477-0.37-0.742-0.471-0.74-0.272-1.562-0.097-2.117,0.459l-15.879,15.881c-0.781,0.781-0.781,2.047 0,2.828s2.047,0.781 2.828,0l14.474-14.477 14.486,14.486c0.391,0.391 0.902,0.586 1.414,0.586s1.023-0.195 1.414-0.586c0.781-0.781 0.781-2.047 0-2.828l-15.878-15.878z"/>
      <path d="M32,0C14.355,0,0,14.355,0,32s14.355,32,32,32s32-14.355,32-32S49.645,0,32,0z M32,60    C16.561,60,4,47.439,4,32S16.561,4,32,4s28,12.561,28,28S47.439,60,32,60z"/>
    </g>
  </g>
</svg>
