<svg width="30" height="30" viewBox="0 0 30 30" fill="none" xmlns="http://www.w3.org/2000/svg">
<path fill-rule="evenodd" clip-rule="evenodd" d="M5 0C2.23858 0 0 2.23858 0 5V25C0 27.7614 2.23858 30 5 30H25C27.7614 30 30 27.7614 30 25V5C30 2.23858 27.7614 0 25 0H5ZM4.5 1.5C2.84315 1.5 1.5 2.84315 1.5 4.5V25.5C1.5 27.1569 2.84315 28.5 4.5 28.5H25.5C27.1569 28.5 28.5 27.1569 28.5 25.5V4.5C28.5 2.84315 27.1569 1.5 25.5 1.5H4.5Z" fill="#95824A"/>
<path fill-rule="evenodd" clip-rule="evenodd" d="M23.7382 9.04358C24.0597 7.43604 22.4168 6.14571 20.9312 6.83899L8.1734 12.7928C6.52555 13.5618 6.67595 15.9528 8.40718 16.5092L12.8034 17.9223C12.8444 17.9354 12.8849 17.9499 12.9248 17.9656L20.4374 10.1934L13.9054 18.7345L13.8722 18.7113L17.6495 23.0552C18.7395 24.3088 20.7941 23.764 21.1199 22.1351L23.7382 9.04358Z" fill="#95824A"/>
</svg>
